<svg xmlns="http://www.w3.org/2000/svg" version="1.1" style="display: block;" viewBox="0 0 2048 2048" width="56" height="56" preserveAspectRatio="none">
<defs>
	<linearGradient id="Gradient1" gradientUnits="userSpaceOnUse" x1="1004.37" y1="1450.13" x2="1041.31" y2="593.565">
		<stop class="stop0" offset="0" stop-opacity="1" stop-color="rgb(243,138,19)"></stop>
		<stop class="stop1" offset="1" stop-opacity="1" stop-color="rgb(247,192,87)"></stop>
	</linearGradient>
</defs>
<path transform="translate(0,0)" fill="rgb(247,246,246)" d="M 1221.04 753.377 C 1270.57 746.691 1324.85 766.778 1365.04 795.697 C 1524.56 910.477 1495.49 1217.58 1298.18 1276.06 C 1283.58 1280.39 1268.33 1282.55 1253.04 1284.64 C 1201.73 1289 1148.77 1267.81 1109.49 1235.87 C 1057.06 1193.24 1015.72 1123.13 1008.85 1056.07 C 1001.08 978.939 1018.91 899.777 1069.78 839.703 C 1111.71 790.171 1156.05 760.161 1221.04 753.377 z M 1244.24 1165.77 C 1276.11 1162.36 1305.26 1146.27 1325.13 1121.13 C 1356.7 1081.34 1363.36 1036.44 1355.01 987.441 C 1348.64 950.008 1329.78 915.846 1299.52 892.434 C 1280.69 877.713 1257.36 869.928 1233.46 870.39 C 1118.46 881.388 1088.57 1037.62 1154.18 1117.04 C 1177.32 1145.06 1206.4 1167 1244.24 1165.77 z"></path>
<path transform="translate(0,0)" fill="rgb(247,246,246)" d="M 1512.87 759.543 L 1513.71 759.499 C 1545.32 757.966 1581.3 759.607 1613.21 759.046 C 1694.07 757.623 1755.37 754.713 1820.26 814.119 C 1872.18 861.645 1895.76 931.685 1899.14 1000.64 C 1903.25 1084.37 1883.7 1156.11 1826.09 1219 C 1761.37 1283.93 1698.64 1282.27 1613.72 1281.15 C 1583.05 1280.75 1551.66 1282.18 1520.91 1281.76 C 1514.39 1281.67 1503.72 1280.87 1502.56 1272.69 C 1500.37 1256.04 1501.11 1238.15 1501.06 1221.29 L 1500.96 1114.75 L 1501 906.319 C 1501 866.028 1501.03 825.616 1501.48 785.324 C 1501.54 780.28 1501.78 767.007 1504.18 762.665 C 1505.47 760.321 1510.38 759.803 1512.87 759.543 z M 1616.82 1171.07 C 1638.75 1171.74 1662.82 1171.45 1684.76 1170.44 C 1713.71 1169.1 1734.51 1154.99 1753.92 1134.55 C 1803.81 1073.68 1804.45 945.673 1739.29 894.108 C 1698.99 862.211 1661.42 875.657 1616.56 871.892 C 1617.48 891.692 1617.02 913.631 1616.99 933.587 L 1616.92 1034.66 L 1617.09 1122.77 C 1617.12 1136.75 1617.66 1157.47 1616.82 1171.07 z"></path>
<path transform="translate(0,0)" fill="rgb(247,246,246)" d="M 552.174 759.42 C 572.429 758.186 595.346 759.356 615.795 758.927 C 620.815 759.185 631.763 758.744 635.396 762.669 C 646.565 774.883 654.12 791.109 662.857 805.278 C 688.645 847.102 714.87 888.634 740.246 930.711 C 746.599 941.244 753.31 952.894 762.031 961.56 C 770.648 951.514 785.098 927.493 793.011 915.242 C 813.432 884.266 833.302 852.93 852.611 821.249 C 860.736 807.859 879.157 775.344 889.013 765.983 C 896.78 758.607 965.385 761.208 977.154 762.184 C 980.435 779.012 979.014 810.603 978.9 828.67 L 979.022 916.35 C 979.868 998.484 980.131 1080.62 979.81 1162.76 C 979.779 1191.61 982.171 1244.93 977.179 1274.75 C 976.886 1276.5 970.461 1279.25 968.273 1279.28 C 940.92 1279.66 913.111 1280.15 885.749 1279.2 C 881.945 1279.07 877.574 1277.68 874.78 1275.68 C 867.981 1264.09 869.987 1221.27 870.046 1206.5 L 870.398 1114.25 C 870.141 1067.98 870.998 1019.59 871.192 973.075 C 846.955 1014.5 814.455 1055.52 789.631 1096.97 C 784.812 1105.02 769.048 1128.26 759.127 1128.74 C 744.815 1124.23 727.387 1092.92 718.799 1079.77 L 676.854 1016.36 C 668.161 1002.96 655.788 982.377 646.502 970.7 L 645.51 969.465 C 647.778 987.706 647.051 1017.35 647.15 1036.8 C 647.542 1077.68 647.545 1118.55 647.161 1159.43 L 646.92 1228.9 C 646.883 1240.4 647.035 1252.45 646.555 1263.9 C 646.368 1268.36 644.393 1274.95 640.588 1277.56 C 639.275 1278.55 636.198 1280.05 634.562 1280.07 C 613.35 1280.33 592.096 1279.94 570.867 1280.15 C 565.519 1280.2 559.862 1280.3 554.551 1279.48 C 550.568 1278.86 544.346 1277.55 542.143 1273.68 C 539.959 1269.58 539.923 1264.79 539.774 1260.28 C 539.093 1181.21 539.818 1102 539.969 1022.94 L 540.177 856.263 C 540.135 831.073 539.81 805.903 539.657 780.718 C 539.579 767.857 540.207 764.874 552.174 759.42 z"></path>
<path transform="translate(0,0)" fill="rgb(247,246,246)" d="M 101.825 757.92 C 105.99 757.458 111.693 757.774 115.92 757.942 C 141.65 758.969 167.384 758.81 193.137 758.856 L 388.293 758.924 C 420.563 758.927 452.846 758.786 485.113 759.103 C 493.515 759.186 498.171 761.939 500.015 770.561 C 501.672 778.305 501.713 785.88 501.565 793.838 C 501.346 805.656 501.8 818.197 498.57 829.668 C 494.84 840.343 486.18 853.265 480.449 863.084 C 467.268 885.666 452.61 907.302 438.625 929.338 L 283.407 1171.04 C 304.645 1169.79 485.433 1167.89 491.856 1173.34 C 496.403 1177.2 497.106 1188.1 497.269 1193.68 C 497.56 1203.65 499.771 1270.27 494.074 1275.24 C 487.227 1281.22 469.202 1278.89 460.5 1278.75 L 241.835 1278.87 C 222.733 1278.88 115.345 1281.45 103.268 1276.63 C 100.933 1275.7 100.744 1274.39 99.7228 1272.25 C 99.7285 1262.04 160.002 1168.88 169.745 1153.11 C 205.475 1094.09 241.917 1035.5 279.063 977.359 C 301.781 941.989 327.898 904.603 349.682 869.257 L 231.282 869.125 C 210.662 869.187 188.781 869.789 168.274 869.131 C 159.334 860.97 98.8417 770.981 96.5281 763.136 C 98.0248 759.733 98.2186 760.439 101.825 757.92 z"></path>
<path transform="translate(0,0)" fill="url(#Gradient1)" d="M 24.3157 701.054 C 32.4147 653.4 73.1426 621.111 120.565 620 C 137.096 619.612 153.321 619.638 169.858 619.692 L 238.48 619.511 L 484.996 619.193 L 1202.77 619.165 L 1517.44 618.916 L 1638.53 618.238 C 1665.82 618.161 1718.91 618.233 1744.76 622.616 C 1830.16 637.569 1906.08 685.94 1955.72 757.025 C 2101.67 963.992 2044.43 1354.35 1759.02 1409.98 C 1717.75 1418.02 1661.62 1417.06 1618.89 1416.81 L 1482.5 1416.2 L 1360.62 1416.31 C 1343.83 1416.32 1316.7 1417.17 1301.02 1416.09 C 1290.55 1417.34 1261.93 1416.61 1250.03 1416.61 L 1151.47 1416.82 L 789.982 1416.46 L 363.184 1416.92 L 210.81 1417.03 C 175.638 1416.97 123.438 1419.05 90.477 1411.65 C 68.922 1406.81 39.1595 1381.11 30.7338 1360.92 C 27.9842 1354.33 21.4469 1344.11 23.8645 1336.42 C 29.3228 1332.29 67.8234 1332.71 74.9004 1337.04 C 89.4153 1353 98.8798 1365.57 121.738 1365.92 C 155.64 1366.45 189.799 1365.94 223.682 1365.98 L 437.726 1366.09 L 1104.62 1366.02 L 1534.47 1366.12 L 1649.12 1366.05 C 1678.47 1366.11 1715.39 1367.92 1743.86 1362.87 C 2011.3 1315.49 2049.01 926.068 1891.66 756.084 C 1841.4 701.207 1770.95 669.165 1696.56 667.34 C 1663.03 666.22 1624.84 667.077 1590.85 667.087 L 1397.98 667.053 L 806.751 666.979 L 347.152 667.073 L 200.881 667.035 C 174.354 667.007 147.84 666.659 121.319 667.349 C 93.4174 668.076 89.3795 683.537 75.1002 701.047 C 60.3852 702.188 39.4066 701.361 24.3157 701.054 z"></path>
<path transform="translate(0,0)" fill="rgb(163,93,25)" d="M 1301.02 1416.09 C 1290.55 1417.34 1261.93 1416.61 1250.03 1416.61 L 1151.47 1416.82 L 789.982 1416.46 L 363.184 1416.92 L 210.81 1417.03 C 175.638 1416.97 123.438 1419.05 90.477 1411.65 C 68.922 1406.81 39.1595 1381.11 30.7338 1360.92 C 27.9842 1354.33 21.4469 1344.11 23.8645 1336.42 C 29.3228 1332.29 67.8234 1332.71 74.9004 1337.04 C 64.6008 1340 34.6072 1333.95 28.2672 1340.66 C 26.0771 1354.97 51.9628 1389.91 65.7878 1394.7 C 71.6223 1396.72 76.8797 1402.31 83.0158 1404.02 C 118.57 1416.45 143.61 1413.79 180.496 1412.76 C 191.385 1412.46 194.571 1414.43 206.41 1412.9 L 206.42 1412.07 C 201.6 1411.99 173.908 1412.5 171.593 1411.44 L 952.785 1414.86 L 1192.12 1415.52 L 1265.29 1415.47 C 1272.74 1415.47 1294.65 1415.04 1301.02 1416.09 z"></path>
</svg>